<?xml version="1.0" encoding="UTF-8" standalone="no"?>
<svg
   xmlns:dc="http://purl.org/dc/elements/1.1/"
   xmlns:cc="http://creativecommons.org/ns#"
   xmlns:rdf="http://www.w3.org/1999/02/22-rdf-syntax-ns#"
   xmlns:svg="http://www.w3.org/2000/svg"
   xmlns="http://www.w3.org/2000/svg"
   xmlns:xlink="http://www.w3.org/1999/xlink"
   xmlns:sodipodi="http://sodipodi.sourceforge.net/DTD/sodipodi-0.dtd"
   xmlns:inkscape="http://www.inkscape.org/namespaces/inkscape"
   version="1.1"
   id="Layer_1"
   x="0px"
   y="0px"
   width="24px"
   height="24px"
   viewBox="0 0 30 30"
   enable-background="new 0 0 30 30"
   xml:space="preserve"
   preserveAspectRatio="xMinYMid meet"
   sodipodi:docname="icon.svg"
   inkscape:version="1.0.2 (e86c8708, 2021-01-15)"><metadata
   id="metadata116"><rdf:RDF><cc:Work
       rdf:about=""><dc:format>image/svg+xml</dc:format><dc:type
         rdf:resource="http://purl.org/dc/dcmitype/StillImage" /><dc:title></dc:title></cc:Work></rdf:RDF></metadata><defs
   id="defs114" /><sodipodi:namedview
   pagecolor="#ffffff"
   bordercolor="#666666"
   borderopacity="1"
   objecttolerance="10"
   gridtolerance="10"
   guidetolerance="10"
   inkscape:pageopacity="0"
   inkscape:pageshadow="2"
   inkscape:window-width="1402"
   inkscape:window-height="933"
   id="namedview112"
   showgrid="false"
   inkscape:snap-text-baseline="false"
   inkscape:zoom="30.625"
   inkscape:cx="18.975239"
   inkscape:cy="10.362155"
   inkscape:window-x="0"
   inkscape:window-y="25"
   inkscape:window-maximized="0"
   inkscape:current-layer="Layer_1" />
		<linearGradient
   id="SVGID_1_"
   gradientUnits="userSpaceOnUse"
   x1="-58.9473"
   y1="84.1865"
   x2="58.9479"
   y2="-84.1852">
			<stop
   offset="0"
   style="stop-color:#283274"
   id="stop66" />
			<stop
   offset="0.7088"
   style="stop-color:#293275"
   id="stop68" />
			<stop
   offset="0.967"
   style="stop-color:#273F87"
   id="stop70" />
		</linearGradient>
<symbol
   id="New_Symbol"
   viewBox="-107.423 -107.423 214.847 214.846">
	<g
   id="g90">
		<path
   fill="url(#SVGID_1_)"
   stroke="#5D6AA4"
   stroke-width="9.3191"
   d="M102.765,0c0-56.755-46.009-102.764-102.765-102.764    c-56.754,0-102.764,46.009-102.764,102.764S-56.754,102.764,0,102.764C56.756,102.764,102.765,56.755,102.765,0z"
   id="path73" />
		
			<linearGradient
   id="SVGID_2_"
   gradientUnits="userSpaceOnUse"
   x1="-75.0186"
   y1="112.8037"
   x2="-15.8528"
   y2="28.3063"
   gradientTransform="matrix(1 0 0 1 18.4946 -31.9512)">
			<stop
   offset="0"
   style="stop-color:#BEC7E5"
   id="stop75" />
			<stop
   offset="0.0956"
   style="stop-color:#B5BEDE"
   id="stop77" />
			<stop
   offset="0.2524"
   style="stop-color:#9CA5CC"
   id="stop79" />
			<stop
   offset="0.4508"
   style="stop-color:#747DAE"
   id="stop81" />
			<stop
   offset="0.6809"
   style="stop-color:#3D4684"
   id="stop83" />
			<stop
   offset="0.7582"
   style="stop-color:#293275"
   id="stop85" />
		</linearGradient>
		<path
   fill="url(#SVGID_2_)"
   d="M0.282,98.502C26.323,98.31,54.293,87.893,74.49,63.84C73.631,43.207,36.703,22.057,5.886-1.229    c-25.857-19.538-65.427-37.86-92.487-45.059c-25.73,49.263-7.016,96.619,25.25,123.238C-46.256,90.16-23.508,98.679,0.282,98.502z    "
   id="path88" />
	</g>
	<g
   id="g96">
		<g
   id="g94">
			<path
   d="M55.602-25.561c0-8.678-3.055-16.072-9.16-22.179c-6.11-6.109-13.501-9.16-22.179-9.16h-37.367     c-8.679,0-16.073,3.051-22.179,9.16c-6.11,6.106-9.162,13.501-9.162,22.179v93.779c6.656,0,12.336-3.254,17.046-9.764     c4.708-6.509,7.062-14.344,7.062-23.505v-60.511c0-4.821,2.411-7.231,7.232-7.231h37.367c4.821,0,7.231,2.41,7.231,7.231V3.128     c0,4.66-2.41,7.07-7.231,7.232H17.03c-9.323,0.324-17.2,2.757-23.626,7.304c-6.43,4.543-9.643,10.145-9.643,16.805h40.501     c8.678,0,16.068-3.056,22.179-9.161c6.105-6.11,9.16-13.5,9.16-22.18V-25.561z"
   id="path92" />
		</g>
	</g>
	<g
   opacity="0.46"
   id="g102">
		<g
   id="g100">
			<path
   fill="#FFFFFF"
   d="M55.602-25.561c0-8.678-3.055-16.072-9.16-22.179c-6.11-6.109-13.501-9.16-22.179-9.16h-37.367     c-8.679,0-16.073,3.051-22.179,9.16c-6.11,6.106-9.162,13.501-9.162,22.179v93.779c6.656,0,12.336-3.254,17.046-9.764     c4.708-6.509,7.062-14.344,7.062-23.505v-60.511c0-4.821,2.411-7.231,7.232-7.231h37.367c4.821,0,7.231,2.41,7.231,7.231V3.128     c0,4.66-2.41,7.07-7.231,7.232H17.03c-9.323,0.324-17.2,2.757-23.626,7.304c-6.43,4.543-9.643,10.145-9.643,16.805h40.501     c8.678,0,16.068-3.056,22.179-9.161c6.105-6.11,9.16-13.5,9.16-22.18V-25.561z"
   id="path98" />
		</g>
	</g>
	<g
   id="g106">
		<path
   fill="#FFFFFF"
   d="M53.829-26.788c0-8.678-3.055-16.072-9.16-22.179c-6.11-6.109-13.501-9.16-22.18-9.16h-37.367    c-8.679,0-16.073,3.051-22.179,9.16c-6.109,6.106-9.16,13.501-9.16,22.179v93.779c6.655,0,12.336-3.255,17.045-9.764    c4.708-6.509,7.062-14.345,7.062-23.505v-60.511c0-4.821,2.41-7.231,7.232-7.231h37.367c4.821,0,7.232,2.41,7.232,7.231V1.901    c0,4.66-2.411,7.07-7.232,7.232h-7.232C5.935,9.457-1.942,11.89-8.368,16.438c-6.43,4.542-9.644,10.144-9.644,16.803h40.501    c8.679,0,16.069-3.055,22.18-9.16c6.105-6.109,9.16-13.5,9.16-22.179V-26.788z"
   id="path104" />
	</g>
</symbol>
<use
   xlink:href="#New_Symbol"
   width="214.847"
   height="214.846"
   x="-107.423"
   y="-107.423"
   transform="matrix(0.1376 0 0 -0.1376 14.9995 15)"
   overflow="visible"
   id="use109" />
<ellipse
   style="fill:#293275;stroke-width:1.48878;fill-opacity:1"
   id="path121"
   cx="15.020409"
   cy="14.836734"
   rx="12.653062"
   ry="12.591837" /><text
   xml:space="preserve"
   style="font-style:normal;font-variant:normal;font-weight:bold;font-stretch:normal;font-size:55.327px;line-height:1.25;font-family:'Apple Braille';-inkscape-font-specification:'Apple Braille Bold';fill:#ffffff;fill-opacity:1;stroke:none;stroke-width:1.38317"
   x="4.2353563"
   y="18.550377"
   id="text127"
   transform="scale(1.0223839,0.97810618)"><tspan
     sodipodi:role="line"
     id="tspan125"
     x="4.2353563"
     y="18.550377"
     style="font-style:normal;font-variant:normal;font-weight:bold;font-stretch:normal;font-size:11.0654px;font-family:'monofur for Powerline';-inkscape-font-specification:'monofur for Powerline Bold';fill:#ffffff;stroke-width:1.38317">bMon</tspan></text></svg>
